<?xml version="1.0" encoding="UTF-8"?>
<svg
  id="Layer_1"
  data-name="Layer 1"
  xmlns="http://www.w3.org/2000/svg"
  xmlns:xlink="http://www.w3.org/1999/xlink"
  viewBox="225 320 225 305"
>
  <defs>
    <style>
      .cls-1 {
        fill: url(#linear-gradient);
      }

      .cls-1, .cls-2, .cls-3, .cls-4 {
        stroke-width: 0px;
      }

      .cls-2 {
        fill: #fff;
      }

      .cls-3 {
        fill: url(#linear-gradient-2);
      }

      .cls-4 {
        fill: url(#linear-gradient-3);
      }
    </style>
    <linearGradient id="linear-gradient" x1="386.72" y1="378.41" x2="417.91" y2="454.28" gradientUnits="userSpaceOnUse">
      <stop offset="0" stop-color="#fff" />
      <stop offset=".63" stop-color="#231f20" />
    </linearGradient>
    <linearGradient id="linear-gradient-2" x1="405.54" y1="545.77" x2="336.34" y2="495.18" gradientUnits="userSpaceOnUse">
      <stop offset=".02" stop-color="#fff" />
      <stop offset=".06" stop-color="#e5e4e4" />
      <stop offset=".14" stop-color="#b8b6b7" />
      <stop offset=".24" stop-color="#8f8d8e" />
      <stop offset=".33" stop-color="#6e6b6c" />
      <stop offset=".43" stop-color="#524f50" />
      <stop offset=".54" stop-color="#3d3a3a" />
      <stop offset=".66" stop-color="#2e2a2b" />
      <stop offset=".8" stop-color="#252122" />
      <stop offset="1" stop-color="#231f20" />
    </linearGradient>
    <linearGradient id="linear-gradient-3" x1="250.4" y1="578.07" x2="295.84" y2="387.94" gradientUnits="userSpaceOnUse">
      <stop offset=".36" stop-color="#fff" />
      <stop offset=".39" stop-color="#e5e4e4" />
      <stop offset=".45" stop-color="#b8b6b7" />
      <stop offset=".51" stop-color="#8f8d8e" />
      <stop offset=".57" stop-color="#6e6b6c" />
      <stop offset=".63" stop-color="#524f50" />
      <stop offset=".7" stop-color="#3d3a3a" />
      <stop offset=".78" stop-color="#2e2a2b" />
      <stop offset=".87" stop-color="#252122" />
      <stop offset="1" stop-color="#231f20" />
    </linearGradient>
  </defs>
  <path class="cls-2" d="M235.72,415.57v132.76l56-18.27,3.44-115.29,4.64-3.34c17.18-12.39,27.35-32.28,27.35-53.46v-27.79l-59.21,31.65c-19.83,10.6-32.21,31.26-32.21,53.74Z" />
  <path class="cls-1" d="M440.05,398.3l-32.2,51.94-43.76-37.43c-15.97-13.66-25.02-33.72-24.69-54.72l.43-27.92,100.22,68.14Z" />
  <path class="cls-3" d="M441.95,582.96v14.92l-103.06-67.49,24.61-48.32,42.59,30.77c22.52,16.27,35.86,42.35,35.86,70.13Z" />
  <path class="cls-2" d="M338.89,530.39l.4-25.78c.34-22.19,11.25-42.89,29.36-55.72l71.41-50.59,1.04,34.4c.54,17.81-8.12,34.64-22.92,44.55l-79.28,53.13Z" />
  <path class="cls-4" d="M274.27,573.93l-38.56,41.18v-114.95c0-30.06,15.55-57.98,41.1-73.81l19.91-12.33v116.38c-.46,15.76-11.68,32.03-22.46,43.54Z" />
</svg>
